Coordinates
version=1
nRows=18
nColumns=22
inDegrees=yes

Units are S.I. units (second, meters, Newtons, ...)
If the header above contains a line with 'inDegrees', this indicates whether rotational values are in degrees (yes) or radians (no).

endheader
time	pelvis_tilt	pelvis_list	pelvis_rotation	pelvis_tx	pelvis_ty	pelvis_tz	hip_flexion_r	hip_adduction_r	hip_rotation_r	knee_angle_r	ankle_angle_r	subtalar_angle_r	hip_flexion_l	hip_adduction_l	hip_rotation_l	knee_angle_l	ankle_angle_l	subtalar_angle_l	lumbar_extension	lumbar_bending	lumbar_rotation
      1.41000000	     -8.19606622	     -0.04066027	    -19.50133949	     -1.07552853	      0.86195797	     -0.41416736	     13.82677844	      2.20444874	     11.28381610	    -27.24293604	     24.55615967	     -8.87083713	     11.51595295	    -11.99772472	    -11.92667927	    -30.91654846	     22.42960158	      6.59319731	      1.89028173	      0.76749289	     14.61529034
      1.42000000	     -8.06137796	     -0.41721952	    -19.52530425	     -1.07392859	      0.86041414	     -0.41180922	     13.58440079	      2.73910511	     11.41367101	    -27.70780208	     25.05007349	     -9.03535788	     12.88486725	    -12.66351832	    -10.94606916	    -34.21032116	     22.39913641	      6.25560436	      1.47944627	      1.22769794	     14.66635950
      1.43000000	     -7.85055080	     -0.75251449	    -19.47192025	     -1.07231401	      0.85891750	     -0.40974745	     13.32017203	      3.18415838	     11.46152921	    -28.24508752	     25.57126366	     -9.23077731	     14.34307338	    -13.20228769	     -9.84992197	    -37.68660152	     22.11731490	      5.89385979	      0.96069776	      1.61305883	     14.66657200
      1.44000000	     -7.58576360	     -1.01667499	    -19.37082415	     -1.07072130	      0.85746465	     -0.40795009	     13.07886207	      3.52572793	     11.45504602	    -28.86823685	     26.10149283	     -9.51957166	     15.89686151	    -13.59023471	     -8.71613156	    -41.28848551	     21.61658504	      5.40085126	      0.36695931	      1.89662401	     14.65418758
      1.45000000	     -7.20406017	     -1.29464921	    -19.18635113	     -1.06898903	      0.85625294	     -0.40647066	     12.69348324	      3.79987938	     11.34853493	    -29.45347748	     26.59058270	     -9.68753292	     17.42118202	    -13.87276892	     -7.54278516	    -44.91943875	     21.02259058	      4.99391293	     -0.38817678	      2.15506554	     14.56852109
      1.46000000	     -6.78708197	     -1.50903531	    -18.96311055	     -1.06717074	      0.85519277	     -0.40522820	     12.27585885	      3.97088983	     11.20291406	    -29.99928785	     27.08232180	     -9.84434432	     18.98050627	    -14.00184648	     -6.39802457	    -48.48074609	     20.35610257	      4.53447323	     -1.18406770	      2.32751197	     14.46197312
      1.47000000	     -6.35154962	     -1.65380719	    -18.72973658	     -1.06518818	      0.85433216	     -0.40417126	     11.82258510	      4.03408237	     11.02444681	    -30.47148595	     27.54546076	     -9.97309153	     20.53687782	    -13.98994303	     -5.36186957	    -51.86160621	     19.68959365	      4.04178967	     -1.98489093	      2.41901109	     14.37019501
      1.48000000	     -5.92206358	     -1.72274535	    -18.50106724	     -1.06298744	      0.85371132	     -0.40323718	     11.32956509	      3.98893025	     10.82565164	    -30.81820084	     27.95989098	    -10.05460537	     22.07160182	    -13.85305979	     -4.47667688	    -54.96133145	     19.08260066	      3.57259064	     -2.75166698	      2.42776500	     14.29400018
      1.49000000	     -5.51152190	     -1.70225132	    -18.31328696	     -1.06051719	      0.85336534	     -0.40234530	     10.80151107	      3.83098614	     10.64058983	    -31.02244336	     28.31520788	    -10.08488817	     23.54944392	    -13.61386166	     -3.81592160	    -57.68925148	     18.56347695	      3.19316367	     -3.45303063	      2.34415249	     14.26491658
      1.50000000	     -5.15492415	     -1.59100906	    -18.18848479	     -1.05773978	      0.85329651	     -0.40142127	     10.24559007	      3.57242062	     10.50090464	    -31.03272801	     28.60498284	    -10.07508056	     24.97369611	    -13.30865053	     -3.39927548	    -59.98012064	     18.12873941	      2.91369342	     -4.03931487	      2.17281119	     14.33478535
      1.51000000	     -4.87055327	     -1.41105030	    -18.14794729	     -1.05471245	      0.85344836	     -0.40039519	      9.71392650	      3.25432732	     10.40824411	    -30.92271343	     28.80919852	    -10.02464650	     26.35402666	    -13.01369709	     -3.26660881	    -61.82089577	     17.79446300	      2.67522299	     -4.50056650	      1.93803717	     14.48511583
      1.52000000	     -4.63938572	     -1.17531120	    -18.19576044	     -1.05140178	      0.85387627	     -0.39924587	      9.15332077	      2.88259903	     10.38611314	    -30.63758417	     28.94228843	     -9.94119582	     27.64659046	    -12.74688251	     -3.39382421	    -63.17301937	     17.49762130	      2.52309888	     -4.85677320	      1.64520044	     14.75781629
      1.53000000	     -4.46659027	     -0.92766222	    -18.29837673	     -1.04777081	      0.85457411	     -0.39798114	      8.51423465	      2.50244593	     10.43569338	    -30.10446350	     28.98744981	     -9.88228748	     28.85107700	    -12.55833329	     -3.72506558	    -64.03552355	     17.23094189	      2.48987860	     -5.11021146	      1.34341732	     15.08399971
      1.54000000	     -4.35614625	     -0.60465848	    -18.47709367	     -1.04391580	      0.85543157	     -0.39663997	      7.91859147	      2.04418543	     10.49046635	    -29.48721649	     28.94919828	     -9.74413390	     29.98734268	    -12.39487804	     -4.27457365	    -64.41845241	     16.89990456	      2.42880332	     -5.24457294	      0.96659433	     15.51866224
      1.55000000	     -4.26534004	     -0.27255963	    -18.69234280	     -1.03978438	      0.85650166	     -0.39525614	      7.23675217	      1.56512714	     10.60886477	    -28.67960442	     28.86642735	     -9.53254726	     30.99343187	    -12.27496399	     -4.92830350	    -64.33293407	     16.59270517	      2.37292033	     -5.32693618	      0.57383194	     16.01453239
      1.56000000	     -4.22058158	      0.03564507	    -18.92438137	     -1.03543072	      0.85767608	     -0.39384980	      6.51663530	      1.10448496	     10.71314312	    -27.73046526	     28.68854142	     -9.36210429	     31.92119491	    -12.23832269	     -5.63200843	    -63.83948798	     16.20286934	      2.34850931	     -5.34774590	      0.21102626	     16.55008068
      1.57000000	     -4.19910019	      0.33635876	    -19.15658818	     -1.03082688	      0.85890282	     -0.39247577	      5.75054643	      0.63398735	     10.80247579	    -26.67093385	     28.46330390	     -9.16630606	     32.74653655	    -12.23634425	     -6.34563042	    -62.95460184	     15.79370228	      2.31386118	     -5.32578166	     -0.14150128	     17.09724304
      1.58000000	     -4.19845366	      0.62044727	    -19.37108578	     -1.02598204	      0.86010477	     -0.39118164	      4.94177244	      0.16015433	     10.85173035	    -25.51671106	     28.20451130	     -8.93319977	     33.48281617	    -12.25369967	     -7.01546111	    -61.73047541	     15.38732194	      2.26285535	     -5.27266116	     -0.47171512	     17.64072113
